<svg xmlns="http://www.w3.org/2000/svg" xmlns:xlink="http://www.w3.org/1999/xlink" xmlns:lucid="lucid" width="827.95" height="583.43"><g transform="translate(-132.05263400686295 -31.7368261275101)" lucid:page-tab-id="0_0"><path d="M260 320c0 22.1-17.9 40-40 40s-40-17.9-40-40 17.9-40 40-40 40 17.9 40 40z" stroke="#5e5e5e" stroke-width="3" fill="#fff"/><use xlink:href="#a" transform="matrix(1,0,0,1,185,285) translate(25.128456790123458 41.569444444444436)"/><path d="M480 320c0 22.1-17.9 40-40 40s-40-17.9-40-40 17.9-40 40-40 40 17.9 40 40z" stroke="#5e5e5e" stroke-width="3" fill="#fff"/><use xlink:href="#b" transform="matrix(1,0,0,1,405,285) translate(25.128456790123458 41.569444444444436)"/><path d="M306.45 263.7l-1.8.36-4.3 1.02-4.23 1.2-4.2 1.38-4.18 1.56-4.13 1.76-4.1 1.95-4.08 2.15-4.06 2.36-4.04 2.58-4.02 2.82-4 3.06-4 3.32-3.26 2.95-1.34-1.48 3.3-3 4.04-3.37 4.07-3.1 4.1-2.87 4.12-2.63 4.13-2.4 4.15-2.2 4.2-1.98 4.2-1.8 4.25-1.58 4.28-1.4 4.32-1.23 4.37-1.04 2.23-.43zm49.24-.4l5 1.38 5.1 1.63 5.1 1.9 5.18 2.15 5.2 2.43 5.25 2.72 5.26 3 3.04 1.94-1.06 1.7-3.03-1.9-5.18-2.98-5.17-2.68-5.13-2.4-5.1-2.12-5.04-1.86-5-1.6-4.93-1.37-2.43-.56v-2.05z" fill="#5e5e5e"/><path d="M252.06 292.16l-.74.67-1.38-1.45.78-.7zM406.68 290.2l-14.28-4.57 5.42-7.52z" fill="#5e5e5e"/><path d="M409.3 292.1l-18.5-5.94 7.02-9.75zm-15.28-7l10.04 3.22-6.23-8.5z" fill="#5e5e5e"/><use xlink:href="#c" transform="matrix(1,0,0,1,306.4502464046493,250.05446577669764) translate(0 14.222222222222223)"/><path d="M276.23 358.14l7.07 3.45 7 2.86 6.98 2.32 6.96 1.8 2.4.47v2.04l-2.84-.56-7.1-1.85-7.08-2.37-7.14-2.9-7.2-3.52-7.05-4.03 1-1.74zm129.95-12.5l-4.35 3.06-9.15 5.76-8.83 4.8-8.53 3.94-8.25 3.17-8 2.5-6.1 1.5v-2.07l5.58-1.36 7.86-2.46 8.14-3.13 8.4-3.88 8.73-4.73 9.05-5.7 4.3-3.03zM270.62 350.65l-5.38 7.55-8.93-12.06z" fill="#5e5e5e"/><path d="M272.23 350.1l-6.98 9.8-11.57-15.64zm-7 6.4l3.78-5.3-10.05-3.18zM407 345.06l-.84.6-1.15-1.63.83-.58z" fill="#5e5e5e"/><use xlink:href="#d" transform="matrix(1,0,0,1,306.64815759396544,361.51377402339455) translate(0 14.222222222222223)"/><path d="M680 220c0 22.1-17.9 40-40 40s-40-17.9-40-40 17.9-40 40-40 40 17.9 40 40z" stroke="#5e5e5e" stroke-width="3" fill="#fff"/><use xlink:href="#e" transform="matrix(1,0,0,1,605,185) translate(25.128456790123458 41.569444444444436)"/><path d="M680 420c0 22.1-17.9 40-40 40s-40-17.9-40-40 17.9-40 40-40 40 17.9 40 40z" stroke="#5e5e5e" stroke-width="3" fill="#fff"/><use xlink:href="#f" transform="matrix(1,0,0,1,605,385) translate(25.128456790123458 41.569444444444436)"/><path d="M517.5 281h3.05l-42.3 20.6-.88-1.8 40.13-19.53zm69.77-32.45l-24.4 11.86v-.73h-3.04l26.56-12.92z" fill="#5e5e5e"/><path d="M478.27 301.58l-.87.42-.98-1.74.98-.48zM589.76 251.38l-4.06-8.34 14.86-2.07z" fill="#5e5e5e"/><path d="M589.46 253.05l-5.26-10.8 19.27-2.7zm-2.26-9.2l2.86 5.85 7.6-7.32z" fill="#5e5e5e"/><use xlink:href="#g" transform="matrix(1,0,0,1,517.4989921277648,259.6749653587283) translate(0 14.222222222222223)"/><path d="M584.3 398.42l-.86 1.8-27.04-12.96h3.22v-.67zm-67.78-32.5h-3.22v.68l-40.47-19.4.86-1.8z" fill="#5e5e5e"/><path d="M473.72 345.4l-.87 1.8-1.14-.54 1.3-1.6zM597.64 405.92l-14.87-2 4-8.35z" fill="#5e5e5e"/><path d="M600.56 407.32l-19.3-2.58 5.2-10.84zm-16.3-4.2l10.46 1.4-7.64-7.27z" fill="#5e5e5e"/><use xlink:href="#h" transform="matrix(1,0,0,1,513.29646587491,365.9253293122594) translate(0 14.222222222222223)"/><path d="M940 220c0 22.1-17.9 40-40 40s-40-17.9-40-40 17.9-40 40-40 40 17.9 40 40z" stroke="#5e5e5e" stroke-width="3" fill="#fff"/><use xlink:href="#i" transform="matrix(1,0,0,1,865,185) translate(25.128456790123458 41.569444444444436)"/><path d="M940 420c0 22.1-17.9 40-40 40s-40-17.9-40-40 17.9-40 40-40 40 17.9 40 40z" stroke="#5e5e5e" stroke-width="3" fill="#fff"/><use xlink:href="#j" transform="matrix(1,0,0,1,865,385) translate(25.128456790123458 41.569444444444436)"/><path d="M413.4 140.1l-9.24 2.4-10.7 3.27-10.72 3.78-10.68 4.27-10.58 4.75-10.43 5.22-10.2 5.64-9.96 6.07-9.65 6.46-9.28 6.8-8.9 7.1-8.47 7.35-8.04 7.6-7.58 7.8-7.13 7.97-6.66 8.1-6.22 8.24-5.75 8.34-5.3 8.4-3.32 5.82-1.73-1 3.35-5.84 5.34-8.48 5.8-8.4 6.26-8.3 6.7-8.17 7.2-8.03 7.64-7.86 8.1-7.65 8.54-7.42 8.96-7.14 9.35-6.84 9.7-6.5 10.03-6.1 10.3-5.7 10.5-5.26 10.65-4.8 10.75-4.3 10.8-3.8 10.78-3.28 9.8-2.55zm71-8.74l9.05.73 8.78 1.07 8.5 1.4 8.26 1.74 8 2.03 7.75 2.32 7.5 2.6 7.3 2.84 7.08 3.12 6.87 3.38 6.67 3.64 6.5 3.9 6.3 4.16 6.14 4.43 6 4.7 5.8 5 5.7 5.3 4.8 4.9-1.42 1.4-4.78-4.87-5.62-5.24-5.76-4.94-5.9-4.65-6.1-4.38-6.23-4.12-6.42-3.86-6.6-3.6-6.8-3.34-7-3.1-7.2-2.82-7.45-2.55-7.67-2.3-7.92-2-8.17-1.7-8.43-1.4-8.7-1.07-8.95-.72-9.24-.35-9.48.04-6.78.3v-2l6.73-.3 9.57-.03z" fill="#5e5e5e"/><path d="M612.13 189.35l-1.45 1.37-.7-.72 1.4-1.4zM247.4 267.96l-10.64 10.57 2.4-14.8z" fill="#5e5e5e"/><path d="M249.1 267.7l-13.82 13.7 3.12-19.2zm-10.86 7.95l7.48-7.43-5.8-2.98z" fill="#5e5e5e"/><use xlink:href="#k" transform="matrix(1,0,0,1,413.41471727686786,123.94168377210353) translate(0 14.222222222222223)"/><path d="M157.98 181h-8.8l-2.64.7-1.77 1.8-.72 2.63v108.94l.72 2.64 1.77 1.8 2.65.7h32.85v2h-33.13l-3.4-.92-2.54-2.53-.93-3.42V185.87l.93-3.42 2.53-2.53 3.42-.92h9.06zm59.57-1.08l2.53 2.53.92 3.42V260h-2v-73.87l-.7-2.64-1.8-1.8-2.63-.7h-10.5v-2h10.76z" fill="#5e5e5e"/><path d="M182.58 302.2h-.55v-2h1.5zM220 275.26L215.36 261h9.28z" fill="#5e5e5e"/><path d="M220 278.5l-6-18.5h12zm-3.26-16.5l3.26 10.03 3.26-10.03z" fill="#5e5e5e"/><use xlink:href="#l" transform="matrix(1,0,0,1,157.97530864197526,169.33333333333334) translate(0 14.222222222222223)"/><path d="M610.66 450.75l-5.34 4.84-6.37 5.3-6.66 5.1-6.97 4.86-7.26 4.64-7.58 4.4-7.92 4.17-8.23 3.9-8.58 3.65-8.9 3.34-9.27 3.04-9.58 2.7-9.9 2.37-10.23 1.98-4.5.68v-2.02l4.15-.62 10.13-1.96 9.83-2.34 9.52-2.7 9.17-3 8.83-3.32 8.5-3.6 8.16-3.88 7.82-4.12 7.5-4.37 7.2-4.6 6.9-4.82 6.58-5.04 6.3-5.26 5.32-4.8zm-369.04-68.43l3 6.66 3.26 6.55 3.57 6.44 3.87 6.34 4.18 6.25 4.5 6.15 4.83 6.06 5.18 5.96 5.55 5.86 5.9 5.75 6.3 5.64 6.7 5.5 7.12 5.36 7.53 5.2 7.96 5 8.38 4.8 8.8 4.57 9.2 4.3 9.6 4 9.98 3.67 10.3 3.3 10.6 2.93.83.2v2.05l-1.32-.3-10.68-2.95-10.38-3.34-10.05-3.7-9.68-4.03-9.3-4.33-8.86-4.6-8.45-4.85-8.03-5.05-7.6-5.24-7.17-5.42-6.77-5.55-6.36-5.7-5.97-5.82-5.6-5.92-5.24-6.02-4.9-6.12-4.54-6.22-4.23-6.32-3.9-6.4-3.62-6.52-3.3-6.62-3.03-6.74-2.25-5.65 1.85-.74z" fill="#5e5e5e"/><path d="M611.42 450.06l-.78.7-1.34-1.47.75-.7zM242.54 374.7l-8.8 2.87-.03-15z" fill="#5e5e5e"/><path d="M244.16 375.22l-11.43 3.73-.02-19.45zm-9.43.98l6.2-2.03-6.2-8.52z" fill="#5e5e5e"/><use xlink:href="#m" transform="matrix(1,0,0,1,388.74611522855923,496.7935714979798) translate(0 14.222222222222223)"/><use xlink:href="#n" transform="matrix(1,0,0,1,388.74611522855923,496.7935714979798) translate(59.25925925925927 14.222222222222223)"/><path d="M682.5 220H840" stroke="#5e5e5e" stroke-width="2" fill="none"/><path d="M682.53 221h-1.1l.07-.98-.03-1.02h1.06z" fill="#5e5e5e"/><path d="M855.26 220L841 224.64v-9.28z" stroke="#5e5e5e" stroke-width="2" fill="#5e5e5e"/><use xlink:href="#o" transform="matrix(1,0,0,1,737.9753086419752,194.66666666666666) translate(0 14.222222222222223)"/><path d="M681.7 419.02l34.8-180.85" stroke="#5e5e5e" stroke-width="2" fill="none"/><path d="M682.68 419.18l-.76 3.95-.6-.1.18-3-.04-1.08z" fill="#5e5e5e"/><path d="M719.4 223.18l1.84 14.88-9.1-1.75z" stroke="#5e5e5e" stroke-width="2" fill="#5e5e5e"/><path d="M682.5 420H840" stroke="#5e5e5e" stroke-width="2" fill="none"/><path d="M682.53 421h-1.1l.07-.98-.03-1.02h1.06z" fill="#5e5e5e"/><path d="M855.26 420L841 424.64v-9.28z" stroke="#5e5e5e" stroke-width="2" fill="#5e5e5e"/><use xlink:href="#p" transform="matrix(1,0,0,1,746.8395061728395,423.99999999999994) translate(0 14.222222222222223)"/><path d="M681.7 220.98l18.4 92.4c2.7-.53 5.34 1.23 5.88 3.94.54 2.7-1.22 5.34-3.93 5.88l15.67 78.65" stroke="#5e5e5e" stroke-width="2" fill="none"/><path d="M682.68 220.8l-1.24.26.06-1.04-.1-3.02v-.04l.5-.1z" fill="#5e5e5e"/><path d="M720.7 416.83l-7.33-13.1 9.1-1.8z" stroke="#5e5e5e" stroke-width="2" fill="#5e5e5e"/><path d="M232.7 383.6l2.28 8.6 2.63 8.45 3 8.33 3.32 8.23 3.7 8.15 4.08 8.06 4.5 8.02 4.9 7.95 5.34 7.9 5.82 7.9 6.32 7.84 6.87 7.83 7.44 7.8 8.05 7.77 8.73 7.73 9.44 7.7 10.2 7.6 11.02 7.53 11.88 7.4L365 541.6l13.72 7.04 14.7 6.76 15.66 6.44 16.63 6.03 17.56 5.55 18.43 5 19.18 4.33 19.83 3.62 20.32 2.83 20.6 2 20.74 1.14 3.95.05v2l-4-.06-20.82-1.14-20.7-2-20.4-2.86-19.9-3.63-19.27-4.35-18.5-5-17.64-5.58-16.7-6.06-15.75-6.46-14.75-6.8-13.8-7.08-12.85-7.28-11.95-7.45-11.1-7.57-10.26-7.67-9.52-7.74-8.8-7.8-8.1-7.82-7.5-7.86-6.93-7.9-6.38-7.9-5.87-7.95-5.4-7.98-4.94-8.02-4.52-8.08-4.12-8.13-3.74-8.22-3.36-8.3-3-8.42-2.66-8.53-2.3-8.68-1.07-4.84 1.94-.43zM878 456.32l-4.94 7.58-5.9 8.26-6.3 8.1-6.74 7.92-7.2 7.77-7.66 7.63-8.18 7.5-8.72 7.32-9.3 7.18-9.93 7-10.6 6.84-11.27 6.63-12.03 6.4-12.8 6.16-13.64 5.87-14.5 5.5-15.35 5.13-16.23 4.67-17.1 4.15-17.96 3.57-18.73 2.9-19.44 2.2-15.8 1.12v-2l15.6-1.1 19.36-2.2 18.65-2.9 17.88-3.55 17.02-4.13 16.16-4.65 15.28-5.1 14.4-5.5 13.55-5.8 12.73-6.12 11.95-6.37 11.22-6.58 10.5-6.8 9.86-6.95 9.24-7.13 8.66-7.28 8.12-7.42 7.6-7.57 7.14-7.72 6.68-7.86 6.26-8.04 5.85-8.18 4.94-7.55z" fill="#5e5e5e"/><path d="M878.57 455.46l-.57.88-1.67-1.1.55-.84zM235.06 377.23l-9.13 1.6L228 364z" fill="#5e5e5e"/><path d="M236.6 377.97l-11.85 2.1 2.7-19.27zm-9.5-.35l6.43-1.14-4.96-9.3z" fill="#5e5e5e"/><use xlink:href="#q" transform="matrix(1,0,0,1,566.3085205655905,582.8291187808821) translate(0 14.222222222222223)"/><path d="M563.23 54.4h-.28l-20.2.87-20.02 1.7-19.7 2.52-19.23 3.26-18.63 3.98-17.92 4.63-17.13 5.2-16.3 5.7-15.43 6.12-14.55 6.48-13.67 6.8-12.8 7.07-12 7.27-11.18 7.45-10.43 7.6-9.7 7.7-9.05 7.83-8.4 7.9-7.8 8-7.26 8.07-6.72 8.14-6.23 8.23-5.74 8.3-5.3 8.4-4.9 8.5-4.5 8.6-4.08 8.7-3.7 8.87-3.35 9.02-2.98 9.2-1.38 5-1.93-.54 1.4-5.04 3-9.27 3.37-9.1 3.75-8.94 4.13-8.8 4.52-8.67 4.93-8.57 5.36-8.47 5.8-8.37 6.27-8.3 6.77-8.2 7.3-8.13 7.87-8.05 8.48-7.97 9.1-7.86 9.78-7.77 10.5-7.64 11.25-7.5 12.07-7.32 12.88-7.1L383 93.08l14.6-6.53 15.52-6.16 16.37-5.72 17.2-5.22 18.02-4.64 18.7-4 19.32-3.3 19.78-2.5 20.1-1.73 20.28-.87h.33zm59.83.42l19.33 2.42 18.75 3.15 18.1 3.8 17.37 4.44 16.6 5L729 79.1 744 85.03l14.2 6.3 13.4 6.63 12.66 6.93 11.92 7.2 11.23 7.44 10.58 7.66 9.95 7.86 9.35 8.05 8.8 8.22 8.25 8.42 7.76 8.6 7.27 8.77 6.2 8.17-1.58 1.2-6.2-8.1-7.22-8.73-7.7-8.53-8.2-8.34-8.74-8.18-9.28-8-9.88-7.8-10.5-7.6-11.17-7.4-11.84-7.16-12.58-6.9-13.34-6.6-14.1-6.26-14.93-5.88-15.7-5.45-16.52-4.96-17.3-4.4-18-3.82-18.68-3.13-19.24-2.4-18.25-1.5V53.3z" fill="#5e5e5e"/><path d="M876.2 186.08l-1.6 1.2-.63-.82 1.6-1.2zM235.98 263.28l-7.8 12.8-1.22-14.94z" fill="#5e5e5e"/><path d="M237.55 262.63l-10.12 16.6-1.58-19.38zm-8.63 10.3l5.5-9-6.35-1.5z" fill="#5e5e5e"/><use xlink:href="#r" transform="matrix(1,0,0,1,563.2312981405815,42.7368261275101) translate(0 14.222222222222223)"/><defs><path fill="#333" d="M101-251c68 0 85 55 85 127S166 4 100 4C33 4 14-52 14-124c0-73 17-127 87-127zm-1 229c47 0 54-49 54-102s-4-102-53-102c-51 0-55 48-55 102 0 53 5 102 54 102" id="s"/><use transform="matrix(0.0987654320987654,0,0,0.0987654320987654,0,0)" xlink:href="#s" id="a"/><path fill="#333" d="M101-251c82-7 93 87 43 132L82-64C71-53 59-42 53-27h129V0H18c2-99 128-94 128-182 0-28-16-43-45-43s-46 15-49 41l-32-3c6-41 34-60 81-64" id="t"/><use transform="matrix(0.0987654320987654,0,0,0.0987654320987654,0,0)" xlink:href="#t" id="b"/><path fill="#333" d="M138-131c27 9 52 24 51 61 0 53-36 74-89 74S11-19 11-69c0-35 22-54 51-61-78-25-46-121 38-121 51 0 83 19 83 66 0 30-18 49-45 54zm-38-16c24 0 32-13 32-36 1-23-11-34-32-34-22 0-33 12-32 34 0 22 9 36 32 36zm1 116c27 0 37-17 37-43 0-25-13-39-39-39-24 0-37 15-37 40 0 27 11 42 39 42" id="u"/><path fill="#333" d="M101-251c68 0 84 54 84 127C185-50 166 4 99 4S15-52 14-124c-1-75 17-127 87-127zm-1 216c37-5 36-46 36-89s4-89-36-89c-39 0-36 45-36 89 0 43-3 85 36 89" id="v"/><path fill="#333" d="M24 0v-54h51V0H24" id="w"/><path fill="#333" d="M135-194c52 0 70 43 70 98 0 56-19 99-73 100-30 1-46-15-58-35L72 0H24l1-261h50v104c11-23 29-37 60-37zM114-30c31 0 40-27 40-66 0-37-7-63-39-63s-41 28-41 65c0 36 8 64 40 64" id="x"/><path fill="#333" d="M121-226c-27-7-43 5-38 36h38v33H83V0H34v-157H6v-33h28c-9-59 32-81 87-68v32" id="y"/><g id="c"><use transform="matrix(0.04938271604938272,0,0,0.04938271604938272,0,0)" xlink:href="#u"/><use transform="matrix(0.04938271604938272,0,0,0.04938271604938272,9.876543209876544,0)" xlink:href="#v"/><use transform="matrix(0.04938271604938272,0,0,0.04938271604938272,19.75308641975309,0)" xlink:href="#w"/><use transform="matrix(0.04938271604938272,0,0,0.04938271604938272,24.69135802469136,0)" xlink:href="#w"/><use transform="matrix(0.04938271604938272,0,0,0.04938271604938272,29.629629629629633,0)" xlink:href="#x"/><use transform="matrix(0.04938271604938272,0,0,0.04938271604938272,40.44444444444445,0)" xlink:href="#y"/></g><path fill="#333" d="M190-63c-7 42-38 67-86 67-59 0-84-38-90-98-12-110 154-137 174-36l-49 2c-2-19-15-32-35-32-30 0-35 28-38 64-6 74 65 87 74 30" id="z"/><path fill="#333" d="M182-182c0 78-84 86-111 141h115V0H12c-6-101 99-100 120-180 1-22-12-31-33-32-23 0-32 14-35 34l-49-3c5-45 32-70 84-70 51 0 83 22 83 69" id="A"/><path fill="#333" d="M88-194c31-1 46 15 58 34l-1-101h50l1 261h-48c-2-10 0-23-3-31C134-8 116 4 84 4 32 4 16-41 15-95c0-56 19-97 73-99zm17 164c33 0 40-30 41-66 1-37-9-64-41-64s-38 30-39 65c0 43 13 65 39 65" id="B"/><g id="d"><use transform="matrix(0.04938271604938272,0,0,0.04938271604938272,0,0)" xlink:href="#z"/><use transform="matrix(0.04938271604938272,0,0,0.04938271604938272,9.876543209876544,0)" xlink:href="#A"/><use transform="matrix(0.04938271604938272,0,0,0.04938271604938272,19.75308641975309,0)" xlink:href="#w"/><use transform="matrix(0.04938271604938272,0,0,0.04938271604938272,24.69135802469136,0)" xlink:href="#w"/><use transform="matrix(0.04938271604938272,0,0,0.04938271604938272,29.629629629629633,0)" xlink:href="#B"/><use transform="matrix(0.04938271604938272,0,0,0.04938271604938272,40.44444444444445,0)" xlink:href="#y"/></g><path fill="#333" d="M126-127c33 6 58 20 58 59 0 88-139 92-164 29-3-8-5-16-6-25l32-3c6 27 21 44 54 44 32 0 52-15 52-46 0-38-36-46-79-43v-28c39 1 72-4 72-42 0-27-17-43-46-43-28 0-47 15-49 41l-32-3c6-42 35-63 81-64 48-1 79 21 79 65 0 36-21 52-52 59" id="C"/><use transform="matrix(0.0987654320987654,0,0,0.0987654320987654,0,0)" xlink:href="#C" id="e"/><path fill="#333" d="M155-56V0h-30v-56H8v-25l114-167h33v167h35v25h-35zm-30-156c-27 46-58 90-88 131h88v-131" id="D"/><use transform="matrix(0.0987654320987654,0,0,0.0987654320987654,0,0)" xlink:href="#D" id="f"/><path fill="#333" d="M99-251c69 0 84 53 88 123 5 99-61 162-144 118-15-8-21-25-26-45l46-6c4 31 50 33 63 7 7-15 12-36 12-60-9 18-29 28-54 28-48 0-72-32-72-82 0-55 31-83 87-83zm-1 128c24 0 37-16 37-39 0-27-10-51-37-51-25 0-35 19-35 45 0 25 10 45 35 45" id="E"/><g id="g"><use transform="matrix(0.04938271604938272,0,0,0.04938271604938272,0,0)" xlink:href="#u"/><use transform="matrix(0.04938271604938272,0,0,0.04938271604938272,9.876543209876544,0)" xlink:href="#v"/><use transform="matrix(0.04938271604938272,0,0,0.04938271604938272,19.75308641975309,0)" xlink:href="#w"/><use transform="matrix(0.04938271604938272,0,0,0.04938271604938272,24.69135802469136,0)" xlink:href="#w"/><use transform="matrix(0.04938271604938272,0,0,0.04938271604938272,29.629629629629633,0)" xlink:href="#E"/><use transform="matrix(0.04938271604938272,0,0,0.04938271604938272,39.50617283950618,0)" xlink:href="#y"/></g><path fill="#333" d="M133-34C117-15 103 5 69 4 32 3 11-16 11-54c-1-60 55-63 116-61 1-26-3-47-28-47-18 1-26 9-28 27l-52-2c7-38 36-58 82-57s74 22 75 68l1 82c-1 14 12 18 25 15v27c-30 8-71 5-69-32zm-48 3c29 0 43-24 42-57-32 0-66-3-65 30 0 17 8 27 23 27" id="F"/><g id="h"><use transform="matrix(0.04938271604938272,0,0,0.04938271604938272,0,0)" xlink:href="#F"/><use transform="matrix(0.04938271604938272,0,0,0.04938271604938272,9.876543209876544,0)" xlink:href="#v"/><use transform="matrix(0.04938271604938272,0,0,0.04938271604938272,19.75308641975309,0)" xlink:href="#w"/><use transform="matrix(0.04938271604938272,0,0,0.04938271604938272,24.69135802469136,0)" xlink:href="#w"/><use transform="matrix(0.04938271604938272,0,0,0.04938271604938272,29.629629629629633,0)" xlink:href="#x"/><use transform="matrix(0.04938271604938272,0,0,0.04938271604938272,40.44444444444445,0)" xlink:href="#y"/></g><path fill="#333" d="M54-142c48-35 137-8 131 61C196 18 31 33 14-55l32-4c7 23 22 37 52 37 35-1 51-22 54-58 4-55-73-65-99-34H22l8-134h141v27H59" id="G"/><use transform="matrix(0.0987654320987654,0,0,0.0987654320987654,0,0)" xlink:href="#G" id="i"/><path fill="#333" d="M110-160c48 1 74 30 74 79 0 53-28 85-80 85-65 0-83-55-86-122-5-90 50-162 133-122 14 7 22 21 27 39l-31 6c-5-40-67-38-82-6-9 19-15 44-15 74 11-20 30-34 60-33zm-7 138c34 0 49-23 49-58s-16-56-50-56c-29 0-50 16-49 49 1 36 15 65 50 65" id="H"/><use transform="matrix(0.0987654320987654,0,0,0.0987654320987654,0,0)" xlink:href="#H" id="j"/><path fill="#333" d="M185-48c-13 30-37 53-82 52C43 2 14-33 14-96s30-98 90-98c62 0 83 45 84 108H66c0 31 8 55 39 56 18 0 30-7 34-22zm-45-69c5-46-57-63-70-21-2 6-4 13-4 21h74" id="I"/><path fill="#333" d="M23 0v-37h61v-169l-59 37v-38l62-41h46v211h57V0H23" id="J"/><g id="k"><use transform="matrix(0.04938271604938272,0,0,0.04938271604938272,0,0)" xlink:href="#I"/><use transform="matrix(0.04938271604938272,0,0,0.04938271604938272,9.876543209876544,0)" xlink:href="#J"/><use transform="matrix(0.04938271604938272,0,0,0.04938271604938272,19.75308641975309,0)" xlink:href="#w"/><use transform="matrix(0.04938271604938272,0,0,0.04938271604938272,24.69135802469136,0)" xlink:href="#w"/><use transform="matrix(0.04938271604938272,0,0,0.04938271604938272,29.629629629629633,0)" xlink:href="#I"/><use transform="matrix(0.04938271604938272,0,0,0.04938271604938272,39.50617283950618,0)" xlink:href="#y"/></g><path fill="#333" d="M52 0c1-96 47-148 87-207H15v-41h169v40c-36 62-79 113-81 208H52" id="K"/><g id="l"><use transform="matrix(0.04938271604938272,0,0,0.04938271604938272,0,0)" xlink:href="#v"/><use transform="matrix(0.04938271604938272,0,0,0.04938271604938272,9.876543209876544,0)" xlink:href="#v"/><use transform="matrix(0.04938271604938272,0,0,0.04938271604938272,19.75308641975309,0)" xlink:href="#w"/><use transform="matrix(0.04938271604938272,0,0,0.04938271604938272,24.69135802469136,0)" xlink:href="#w"/><use transform="matrix(0.04938271604938272,0,0,0.04938271604938272,29.629629629629633,0)" xlink:href="#K"/><use transform="matrix(0.04938271604938272,0,0,0.04938271604938272,39.50617283950618,0)" xlink:href="#y"/></g><path fill="#333" d="M76-54c-1 42 2 86-19 110H24C36 42 46 24 48 0H25v-54h51" id="L"/><g id="m"><use transform="matrix(0.04938271604938272,0,0,0.04938271604938272,0,0)" xlink:href="#I"/><use transform="matrix(0.04938271604938272,0,0,0.04938271604938272,9.876543209876544,0)" xlink:href="#v"/><use transform="matrix(0.04938271604938272,0,0,0.04938271604938272,19.75308641975309,0)" xlink:href="#w"/><use transform="matrix(0.04938271604938272,0,0,0.04938271604938272,24.69135802469136,0)" xlink:href="#w"/><use transform="matrix(0.04938271604938272,0,0,0.04938271604938272,29.629629629629633,0)" xlink:href="#I"/><use transform="matrix(0.04938271604938272,0,0,0.04938271604938272,39.50617283950618,0)" xlink:href="#z"/><use transform="matrix(0.04938271604938272,0,0,0.04938271604938272,49.38271604938272,0)" xlink:href="#L"/></g><g id="n"><use transform="matrix(0.04938271604938272,0,0,0.04938271604938272,0,0)" xlink:href="#I"/><use transform="matrix(0.04938271604938272,0,0,0.04938271604938272,9.876543209876544,0)" xlink:href="#I"/><use transform="matrix(0.04938271604938272,0,0,0.04938271604938272,19.75308641975309,0)" xlink:href="#w"/><use transform="matrix(0.04938271604938272,0,0,0.04938271604938272,24.69135802469136,0)" xlink:href="#w"/><use transform="matrix(0.04938271604938272,0,0,0.04938271604938272,29.629629629629633,0)" xlink:href="#I"/><use transform="matrix(0.04938271604938272,0,0,0.04938271604938272,39.50617283950618,0)" xlink:href="#y"/></g><g id="o"><use transform="matrix(0.04938271604938272,0,0,0.04938271604938272,0,0)" xlink:href="#u"/><use transform="matrix(0.04938271604938272,0,0,0.04938271604938272,9.876543209876544,0)" xlink:href="#v"/><use transform="matrix(0.04938271604938272,0,0,0.04938271604938272,19.75308641975309,0)" xlink:href="#w"/><use transform="matrix(0.04938271604938272,0,0,0.04938271604938272,24.69135802469136,0)" xlink:href="#w"/><use transform="matrix(0.04938271604938272,0,0,0.04938271604938272,29.629629629629633,0)" xlink:href="#u"/><use transform="matrix(0.04938271604938272,0,0,0.04938271604938272,39.50617283950618,0)" xlink:href="#y"/></g><g id="p"><use transform="matrix(0.04938271604938272,0,0,0.04938271604938272,0,0)" xlink:href="#E"/><use transform="matrix(0.04938271604938272,0,0,0.04938271604938272,9.876543209876544,0)" xlink:href="#v"/><use transform="matrix(0.04938271604938272,0,0,0.04938271604938272,19.75308641975309,0)" xlink:href="#w"/><use transform="matrix(0.04938271604938272,0,0,0.04938271604938272,24.69135802469136,0)" xlink:href="#w"/><use transform="matrix(0.04938271604938272,0,0,0.04938271604938272,29.629629629629633,0)" xlink:href="#x"/><use transform="matrix(0.04938271604938272,0,0,0.04938271604938272,40.44444444444445,0)" xlink:href="#y"/></g><g id="q"><use transform="matrix(0.04938271604938272,0,0,0.04938271604938272,0,0)" xlink:href="#y"/><use transform="matrix(0.04938271604938272,0,0,0.04938271604938272,5.8765432098765435,0)" xlink:href="#v"/><use transform="matrix(0.04938271604938272,0,0,0.04938271604938272,15.753086419753087,0)" xlink:href="#w"/><use transform="matrix(0.04938271604938272,0,0,0.04938271604938272,20.69135802469136,0)" xlink:href="#w"/><use transform="matrix(0.04938271604938272,0,0,0.04938271604938272,25.629629629629633,0)" xlink:href="#y"/><use transform="matrix(0.04938271604938272,0,0,0.04938271604938272,31.506172839506174,0)" xlink:href="#v"/></g><path fill="#333" d="M165-50V0h-47v-50H5v-38l105-160h55v161h33v37h-33zm-47-37l2-116L46-87h72" id="M"/><g id="r"><use transform="matrix(0.04938271604938272,0,0,0.04938271604938272,0,0)" xlink:href="#y"/><use transform="matrix(0.04938271604938272,0,0,0.04938271604938272,5.8765432098765435,0)" xlink:href="#J"/><use transform="matrix(0.04938271604938272,0,0,0.04938271604938272,15.753086419753087,0)" xlink:href="#w"/><use transform="matrix(0.04938271604938272,0,0,0.04938271604938272,20.69135802469136,0)" xlink:href="#w"/><use transform="matrix(0.04938271604938272,0,0,0.04938271604938272,25.629629629629633,0)" xlink:href="#y"/><use transform="matrix(0.04938271604938272,0,0,0.04938271604938272,31.506172839506174,0)" xlink:href="#M"/></g></defs></g></svg>