<svg xmlns="http://www.w3.org/2000/svg" xmlns:xlink="http://www.w3.org/1999/xlink" xmlns:lucid="lucid" width="960" height="628.26"><g transform="translate(0 -31.7368261275101)" lucid:page-tab-id="bMsmAG9d6QSh"><path d="M260 320c0 22.1-17.9 40-40 40s-40-17.9-40-40 17.9-40 40-40 40 17.9 40 40z" stroke="#5e5e5e" stroke-width="3" fill="#fff"/><use xlink:href="#a" transform="matrix(1,0,0,1,185,285) translate(25.128456790123458 41.569444444444436)"/><path d="M480 320c0 22.1-17.9 40-40 40s-40-17.9-40-40 17.9-40 40-40 40 17.9 40 40z" stroke="#5e5e5e" stroke-width="3" fill="#fff"/><use xlink:href="#b" transform="matrix(1,0,0,1,405,285) translate(25.128456790123458 41.569444444444436)"/><path d="M309.86 263.08l-.9.14-4.32.84-4.28 1.02-4.24 1.2-4.2 1.38-4.18 1.56-4.13 1.76-4.1 1.95-4.08 2.15-4.06 2.36-4.04 2.58-4.02 2.82-4 3.06-4 3.32-3.26 2.95-1.34-1.48 3.3-3 4.04-3.37 4.07-3.1 4.1-2.87 4.12-2.63 4.13-2.4 4.15-2.2 4.2-1.98 4.2-1.8 4.25-1.58 4.28-1.4 4.32-1.23 4.37-1.04 4.4-.86 1.24-.18zm40.86-.94l4.97 1.15 5 1.38 5.1 1.63 5.1 1.9 5.18 2.15 5.2 2.43 5.25 2.72 5.26 3 3.04 1.94-1.06 1.7-3.03-1.9-5.18-2.98-5.17-2.68-5.13-2.4-5.1-2.12-5.04-1.86-5-1.6-4.93-1.37-4.9-1.13-.94-.17v-2.04z" fill="#5e5e5e"/><path d="M252.06 292.16l-.74.67-1.38-1.45.78-.7zM406.68 290.2l-14.28-4.57 5.42-7.52z" fill="#5e5e5e"/><path d="M409.3 292.1l-18.5-5.94 7.02-9.75zm-15.28-7l10.04 3.22-6.23-8.5z" fill="#5e5e5e"/><use xlink:href="#c" transform="matrix(1,0,0,1,309.8576538120567,250.05446577669764) translate(0 14.222222222222223)"/><path d="M276.23 358.14l7.07 3.45 7 2.86 6.98 2.32 6.96 1.8 6.98 1.34 7.03.87 6.62.36v2l-6.8-.38-7.16-.88-7.1-1.36-7.1-1.85-7.08-2.37-7.14-2.9-7.2-3.52-7.05-4.03 1-1.74zm129.95-12.5l-4.35 3.06-9.15 5.76-8.83 4.8-8.53 3.94-8.25 3.17-8 2.5-7.75 1.9-7.55 1.3-7.4.82-1.62.06v-2l1.48-.06 7.25-.8 7.43-1.3 7.65-1.86 7.86-2.46 8.14-3.13 8.4-3.88 8.73-4.73 9.05-5.7 4.3-3.03zM270.62 350.65l-5.38 7.55-8.93-12.06z" fill="#5e5e5e"/><path d="M272.23 350.1l-6.98 9.8-11.57-15.64zm-7 6.4l3.78-5.3-10.05-3.18zM407 345.06l-.84.6-1.15-1.63.83-.58z" fill="#5e5e5e"/><use xlink:href="#d" transform="matrix(1,0,0,1,324.87037981618766,361.51377402339455) translate(0 14.222222222222223)"/><path d="M680 220c0 22.1-17.9 40-40 40s-40-17.9-40-40 17.9-40 40-40 40 17.9 40 40z" stroke="#5e5e5e" stroke-width="3" fill="#fff"/><use xlink:href="#e" transform="matrix(1,0,0,1,605,185) translate(25.128456790123458 41.569444444444436)"/><path d="M680 420c0 22.1-17.9 40-40 40s-40-17.9-40-40 17.9-40 40-40 40 17.9 40 40z" stroke="#5e5e5e" stroke-width="3" fill="#fff"/><use xlink:href="#f" transform="matrix(1,0,0,1,605,385) translate(25.128456790123458 41.569444444444436)"/><path d="M527.84 277.46l-49.6 24.13-.87-1.8 50.47-24.56zm59.43-28.9l-34.73 16.9v-2.24l33.85-16.47z" fill="#5e5e5e"/><path d="M478.27 301.58l-.87.42-.98-1.74.98-.48zM589.76 251.38l-4.06-8.34 14.86-2.07z" fill="#5e5e5e"/><path d="M589.46 253.05l-5.26-10.8 19.27-2.7zm-2.26-9.2l2.86 5.85 7.6-7.32z" fill="#5e5e5e"/><use xlink:href="#g" transform="matrix(1,0,0,1,527.8446711401104,259.67496535872823) translate(0 14.222222222222223)"/><path d="M584.3 398.42l-.86 1.8-42.04-20.15v-2.22zm-52.78-25.3v2.2l-58.7-28.12.87-1.8z" fill="#5e5e5e"/><path d="M473.72 345.4l-.87 1.8-1.14-.54 1.3-1.6zM597.64 405.92l-14.87-2 4-8.35z" fill="#5e5e5e"/><path d="M600.56 407.32l-19.3-2.58 5.2-10.84zm-16.3-4.2l10.46 1.4-7.64-7.27z" fill="#5e5e5e"/><use xlink:href="#h" transform="matrix(1,0,0,1,531.5186880971324,365.9253293122594) translate(0 14.222222222222223)"/><path d="M940 220c0 22.1-17.9 40-40 40s-40-17.9-40-40 17.9-40 40-40 40 17.9 40 40z" stroke="#5e5e5e" stroke-width="3" fill="#fff"/><use xlink:href="#i" transform="matrix(1,0,0,1,865,185) translate(25.128456790123458 41.569444444444436)"/><path d="M940 420c0 22.1-17.9 40-40 40s-40-17.9-40-40 17.9-40 40-40 40 17.9 40 40z" stroke="#5e5e5e" stroke-width="3" fill="#fff"/><use xlink:href="#j" transform="matrix(1,0,0,1,865,385) translate(25.128456790123458 41.569444444444436)"/><path d="M423.76 137.8l-8.97 1.93-10.64 2.77-10.7 3.27-10.72 3.78-10.68 4.27-10.58 4.75-10.43 5.22-10.2 5.64-9.96 6.07-9.65 6.46-9.28 6.8-8.9 7.1-8.47 7.35-8.04 7.6-7.58 7.8-7.13 7.97-6.66 8.1-6.22 8.24-5.75 8.34-5.3 8.4-3.32 5.82-1.73-1 3.35-5.84 5.34-8.48 5.8-8.4 6.26-8.3 6.7-8.17 7.2-8.03 7.64-7.86 8.1-7.65 8.54-7.42 8.96-7.14 9.35-6.84 9.7-6.5 10.03-6.1 10.3-5.7 10.5-5.26 10.65-4.8 10.75-4.3 10.8-3.8 10.78-3.28 10.73-2.8 9.43-2.03zm60.65-6.44l9.05.73 8.78 1.07 8.5 1.4 8.26 1.74 8 2.03 7.75 2.32 7.5 2.6 7.3 2.84 7.08 3.12 6.87 3.38 6.67 3.64 6.5 3.9 6.3 4.16 6.14 4.43 6 4.7 5.8 5 5.7 5.3 4.8 4.9-1.42 1.4-4.78-4.87-5.62-5.24-5.76-4.94-5.9-4.65-6.1-4.38-6.23-4.12-6.42-3.86-6.6-3.6-6.8-3.34-7-3.1-7.2-2.82-7.45-2.55-7.67-2.3-7.92-2-8.17-1.7-8.43-1.4-8.7-1.07-8.95-.72-9.24-.35-9.48.04-9.74.44-7.4.64v-2l7.27-.64 9.83-.44 9.57-.03z" fill="#5e5e5e"/><path d="M612.13 189.35l-1.45 1.37-.7-.72 1.4-1.4zM247.4 267.96l-10.64 10.57 2.4-14.8z" fill="#5e5e5e"/><path d="M249.1 267.7l-13.82 13.7 3.12-19.2zm-10.86 7.95l7.48-7.43-5.8-2.98z" fill="#5e5e5e"/><use xlink:href="#k" transform="matrix(1,0,0,1,423.76039628921353,123.94168377210353) translate(0 14.222222222222223)"/><path d="M175.73 181H149.2l-2.66.7-1.77 1.8-.72 2.63v108.94l.72 2.64 1.77 1.8 2.65.7h32.85v2h-33.13l-3.4-.92-2.54-2.53-.93-3.42V185.87l.93-3.42 2.53-2.53 3.42-.92h26.8zm41.82-1.08l2.53 2.53.92 3.42V260h-2v-73.87l-.7-2.64-1.8-1.8-2.63-.7H185.6v-2h28.53z" fill="#5e5e5e"/><path d="M182.58 302.2h-.55v-2h1.5zM220 275.26L215.36 261h9.28z" fill="#5e5e5e"/><path d="M220 278.5l-6-18.5h12zm-3.26-16.5l3.26 10.03 3.26-10.03z" fill="#5e5e5e"/><use xlink:href="#l" transform="matrix(1,0,0,1,175.72839506172835,169.33333333333334) translate(0 14.222222222222223)"/><path d="M610.66 450.75l-5.34 4.84-6.37 5.3-6.66 5.1-6.97 4.86-7.26 4.64-7.58 4.4-7.92 4.17-8.23 3.9-8.58 3.65-8.9 3.34-9.27 3.04-9.58 2.7-9.9 2.37-10.23 1.98-10.5 1.6-10.76 1.15-10.96.73-7.33.17v-2l7.24-.17 10.87-.72 10.66-1.15 10.42-1.57 10.13-1.96 9.83-2.34 9.52-2.7 9.17-3 8.83-3.32 8.5-3.6 8.16-3.88 7.82-4.12 7.5-4.37 7.2-4.6 6.9-4.82 6.58-5.04 6.3-5.26 5.32-4.8zm-369.04-68.43l3 6.66 3.26 6.55 3.57 6.44 3.87 6.34 4.18 6.25 4.5 6.15 4.83 6.06 5.18 5.96 5.55 5.86 5.9 5.75 6.3 5.64 6.7 5.5 7.12 5.36 7.53 5.2 7.96 5 8.38 4.8 8.8 4.57 9.2 4.3 9.6 4 9.98 3.67 10.3 3.3 10.6 2.93 10.84 2.5 11.02 2.07 11.16 1.6 2.84.3v2l-3.1-.3-11.22-1.62-11.1-2.08-10.93-2.53-10.68-2.94-10.38-3.34-10.05-3.7-9.68-4.03-9.3-4.33-8.86-4.6-8.45-4.85-8.03-5.05-7.6-5.24-7.17-5.42-6.77-5.55-6.36-5.7-5.97-5.82-5.6-5.92-5.24-6.02-4.9-6.12-4.54-6.22-4.23-6.32-3.9-6.4-3.62-6.52-3.3-6.62-3.03-6.74-2.25-5.65 1.85-.74z" fill="#5e5e5e"/><path d="M611.42 450.06l-.78.7-1.34-1.47.75-.7zM242.54 374.7l-8.8 2.87-.03-15z" fill="#5e5e5e"/><path d="M244.16 375.22l-11.43 3.73-.02-19.45zm-9.43.98l6.2-2.03-6.2-8.52z" fill="#5e5e5e"/><use xlink:href="#m" transform="matrix(1,0,0,1,423.78315226559624,496.7935714979798) translate(0 14.222222222222223)"/><path d="M682.5 220H840" stroke="#5e5e5e" stroke-width="2" fill="none"/><path d="M682.53 221h-1.1l.07-.98-.03-1.02h1.06z" fill="#5e5e5e"/><path d="M855.26 220L841 224.64v-9.28z" stroke="#5e5e5e" stroke-width="2" fill="#5e5e5e"/><use xlink:href="#n" transform="matrix(1,0,0,1,755.7283950617283,194.66666666666666) translate(0 14.222222222222223)"/><path d="M681.7 419.02l34.8-180.85" stroke="#5e5e5e" stroke-width="2" fill="none"/><path d="M682.68 419.18l-.76 3.95-.6-.1.18-3-.04-1.08z" fill="#5e5e5e"/><path d="M719.4 223.18l1.84 14.88-9.1-1.75z" stroke="#5e5e5e" stroke-width="2" fill="#5e5e5e"/><path d="M682.5 420H840" stroke="#5e5e5e" stroke-width="2" fill="none"/><path d="M682.53 421h-1.1l.07-.98-.03-1.02h1.06z" fill="#5e5e5e"/><path d="M855.26 420L841 424.64v-9.28z" stroke="#5e5e5e" stroke-width="2" fill="#5e5e5e"/><use xlink:href="#o" transform="matrix(1,0,0,1,757.6543209876543,423.99999999999994) translate(0 14.222222222222223)"/><path d="M681.7 220.98l18.4 92.4c2.7-.53 5.34 1.23 5.88 3.94.54 2.7-1.22 5.34-3.93 5.88l15.67 78.65" stroke="#5e5e5e" stroke-width="2" fill="none"/><path d="M682.68 220.8l-1.24.26.06-1.04-.1-3.02v-.04l.5-.1z" fill="#5e5e5e"/><path d="M720.7 416.83l-7.33-13.1 9.1-1.8z" stroke="#5e5e5e" stroke-width="2" fill="#5e5e5e"/><path d="M232.7 383.6l2.28 8.6 2.63 8.45 3 8.33 3.32 8.23 3.7 8.15 4.08 8.06 4.5 8.02 4.9 7.95 5.34 7.9 5.82 7.9 6.32 7.84 6.87 7.83 7.44 7.8 8.05 7.77 8.73 7.73 9.44 7.7 10.2 7.6 11.02 7.53 11.88 7.4L365 541.6l13.72 7.04 14.7 6.76 15.66 6.44 16.63 6.03 17.56 5.55 18.43 5 19.18 4.33 19.83 3.62 20.32 2.83 20.6 2 20.74 1.14 15.26.2v2l-15.33-.2-20.82-1.14-20.7-2-20.4-2.86-19.9-3.63-19.27-4.35-18.5-5-17.64-5.58-16.7-6.06-15.75-6.46-14.75-6.8-13.8-7.08-12.85-7.28-11.95-7.45-11.1-7.57-10.26-7.67-9.52-7.74-8.8-7.8-8.1-7.82-7.5-7.86-6.93-7.9-6.38-7.9-5.87-7.95-5.4-7.98-4.94-8.02-4.52-8.08-4.12-8.13-3.74-8.22-3.36-8.3-3-8.42-2.66-8.53-2.3-8.68-1.07-4.84 1.94-.43zM878 456.32l-4.94 7.58-5.9 8.26-6.3 8.1-6.74 7.92-7.2 7.77-7.66 7.63-8.18 7.5-8.72 7.32-9.3 7.18-9.93 7-10.6 6.84-11.27 6.63-12.03 6.4-12.8 6.16-13.64 5.87-14.5 5.5-15.35 5.13-16.23 4.67-17.1 4.15-17.96 3.57-18.73 2.9-19.44 2.2-20.02 1.42-7.1.2v-2l7-.2 19.93-1.4 19.36-2.2 18.65-2.9 17.88-3.55 17.02-4.13 16.16-4.65 15.28-5.1 14.4-5.5 13.55-5.8 12.73-6.12 11.95-6.37 11.22-6.58 10.5-6.8 9.86-6.95 9.24-7.13 8.66-7.28 8.12-7.42 7.6-7.57 7.14-7.72 6.68-7.86 6.26-8.04 5.85-8.18 4.94-7.55z" fill="#5e5e5e"/><path d="M878.57 455.46l-.57.88-1.67-1.1.55-.84zM235.06 377.23l-9.13 1.6L228 364z" fill="#5e5e5e"/><path d="M236.6 377.97l-11.85 2.1 2.7-19.27zm-9.5-.35l6.43-1.14-4.96-9.3z" fill="#5e5e5e"/><use xlink:href="#p" transform="matrix(1,0,0,1,577.6171625408991,582.8291187808821) translate(0 14.222222222222223)"/><path d="M571.58 54.4h-8.63l-20.2.87-20.02 1.7-19.7 2.52-19.23 3.26-18.63 3.98-17.92 4.63-17.13 5.2-16.3 5.7-15.43 6.12-14.55 6.48-13.67 6.8-12.8 7.07-12 7.27-11.18 7.45-10.43 7.6-9.7 7.7-9.05 7.83-8.4 7.9-7.8 8-7.26 8.07-6.72 8.14-6.23 8.23-5.74 8.3-5.3 8.4-4.9 8.5-4.5 8.6-4.08 8.7-3.7 8.87-3.35 9.02-2.98 9.2-1.38 5-1.93-.54 1.4-5.04 3-9.27 3.37-9.1 3.75-8.94 4.13-8.8 4.52-8.67 4.93-8.57 5.36-8.47 5.8-8.37 6.27-8.3 6.77-8.2 7.3-8.13 7.87-8.05 8.48-7.97 9.1-7.86 9.78-7.77 10.5-7.64 11.25-7.5 12.07-7.32 12.88-7.1L383 93.08l14.6-6.53 15.52-6.16 16.37-5.72 17.2-5.22 18.02-4.64 18.7-4 19.32-3.3 19.78-2.5 20.1-1.73 20.28-.87h8.68zm31.7-1.2l19.78 1.62 19.33 2.42 18.75 3.15 18.1 3.8 17.37 4.44 16.6 5L729 79.1 744 85.03l14.2 6.3 13.4 6.63 12.66 6.93 11.92 7.2 11.23 7.44 10.58 7.66 9.95 7.86 9.35 8.05 8.8 8.22 8.25 8.42 7.76 8.6 7.27 8.77 6.2 8.17-1.58 1.2-6.2-8.1-7.22-8.73-7.7-8.53-8.2-8.34-8.74-8.18-9.28-8-9.88-7.8-10.5-7.6-11.17-7.4-11.84-7.16-12.58-6.9-13.34-6.6-14.1-6.26-14.93-5.88-15.7-5.45-16.52-4.96-17.3-4.4-18-3.82-18.68-3.13-19.24-2.4-19.7-1.63-6.9-.3v-2z" fill="#5e5e5e"/><path d="M876.2 186.08l-1.6 1.2-.63-.82 1.6-1.2zM235.98 263.28l-7.8 12.8-1.22-14.94z" fill="#5e5e5e"/><path d="M237.55 262.63l-10.12 16.6-1.58-19.38zm-8.63 10.3l5.5-9-6.35-1.5z" fill="#5e5e5e"/><use xlink:href="#q" transform="matrix(1,0,0,1,571.5769771529272,42.7368261275101) translate(0 14.222222222222223)"/><path d="M20 486c0-3.3 2.7-6 6-6h228c3.3 0 6 2.7 6 6v148c0 3.3-2.7 6-6 6H26c-3.3 0-6-2.7-6-6z" stroke="#000" stroke-opacity="0" stroke-width="3" fill="#fff" fill-opacity="0"/><use xlink:href="#r" transform="matrix(1,0,0,1,25,485) translate(0 15.28515625)"/><use xlink:href="#s" transform="matrix(1,0,0,1,25,485) translate(91.7482638888889 15.28515625)"/><use xlink:href="#t" transform="matrix(1,0,0,1,25,485) translate(126.15386284722223 15.28515625)"/><use xlink:href="#u" transform="matrix(1,0,0,1,25,485) translate(217.90212673611114 15.28515625)"/><use xlink:href="#v" transform="matrix(1,0,0,1,25,485) translate(0 34.396267361111114)"/><use xlink:href="#w" transform="matrix(1,0,0,1,25,485) translate(91.7482638888889 34.396267361111114)"/><use xlink:href="#x" transform="matrix(1,0,0,1,25,485) translate(126.15386284722223 34.396267361111114)"/><use xlink:href="#y" transform="matrix(1,0,0,1,25,485) translate(217.90212673611114 34.396267361111114)"/><use xlink:href="#z" transform="matrix(1,0,0,1,25,485) translate(0 53.50737847222222)"/><use xlink:href="#A" transform="matrix(1,0,0,1,25,485) translate(91.7482638888889 53.50737847222222)"/><use xlink:href="#B" transform="matrix(1,0,0,1,25,485) translate(126.15386284722223 53.50737847222222)"/><use xlink:href="#u" transform="matrix(1,0,0,1,25,485) translate(217.90212673611114 53.50737847222222)"/><use xlink:href="#C" transform="matrix(1,0,0,1,25,485) translate(0 72.61848958333333)"/><use xlink:href="#D" transform="matrix(1,0,0,1,25,485) translate(91.7482638888889 72.61848958333333)"/><use xlink:href="#E" transform="matrix(1,0,0,1,25,485) translate(126.15386284722223 72.61848958333333)"/><use xlink:href="#F" transform="matrix(1,0,0,1,25,485) translate(206.43359375 72.61848958333333)"/><use xlink:href="#G" transform="matrix(1,0,0,1,25,485) translate(0 91.72960069444444)"/><use xlink:href="#H" transform="matrix(1,0,0,1,25,485) translate(91.7482638888889 91.72960069444444)"/><use xlink:href="#I" transform="matrix(1,0,0,1,25,485) translate(126.15386284722223 91.72960069444444)"/><use xlink:href="#J" transform="matrix(1,0,0,1,25,485) translate(217.90212673611114 91.72960069444444)"/><use xlink:href="#K" transform="matrix(1,0,0,1,25,485) translate(0 110.84071180555556)"/><use xlink:href="#L" transform="matrix(1,0,0,1,25,485) translate(91.7482638888889 110.84071180555556)"/><use xlink:href="#M" transform="matrix(1,0,0,1,25,485) translate(126.15386284722223 110.84071180555556)"/><use xlink:href="#N" transform="matrix(1,0,0,1,25,485) translate(217.90212673611114 110.84071180555556)"/><use xlink:href="#O" transform="matrix(1,0,0,1,25,485) translate(0 129.95182291666669)"/><use xlink:href="#P" transform="matrix(1,0,0,1,25,485) translate(80.27973090277779 129.95182291666669)"/><use xlink:href="#Q" transform="matrix(1,0,0,1,25,485) translate(126.15386284722223 129.95182291666669)"/><use xlink:href="#R" transform="matrix(1,0,0,1,25,485) translate(217.90212673611114 129.95182291666669)"/><defs><path fill="#333" d="M101-251c68 0 85 55 85 127S166 4 100 4C33 4 14-52 14-124c0-73 17-127 87-127zm-1 229c47 0 54-49 54-102s-4-102-53-102c-51 0-55 48-55 102 0 53 5 102 54 102" id="S"/><use transform="matrix(0.0987654320987654,0,0,0.0987654320987654,0,0)" xlink:href="#S" id="a"/><path fill="#333" d="M101-251c82-7 93 87 43 132L82-64C71-53 59-42 53-27h129V0H18c2-99 128-94 128-182 0-28-16-43-45-43s-46 15-49 41l-32-3c6-41 34-60 81-64" id="T"/><use transform="matrix(0.0987654320987654,0,0,0.0987654320987654,0,0)" xlink:href="#T" id="b"/><path fill="#333" d="M23 0v-37h61v-169l-59 37v-38l62-41h46v211h57V0H23" id="U"/><path fill="#333" d="M76-54c-1 42 2 86-19 110H24C36 42 46 24 48 0H25v-54h51" id="V"/><path fill="#333" d="M52 0c1-96 47-148 87-207H15v-41h169v40c-36 62-79 113-81 208H52" id="W"/><path fill="#333" d="M99-251c69 0 84 53 88 123 5 99-61 162-144 118-15-8-21-25-26-45l46-6c4 31 50 33 63 7 7-15 12-36 12-60-9 18-29 28-54 28-48 0-72-32-72-82 0-55 31-83 87-83zm-1 128c24 0 37-16 37-39 0-27-10-51-37-51-25 0-35 19-35 45 0 25 10 45 35 45" id="X"/><g id="c"><use transform="matrix(0.04938271604938272,0,0,0.04938271604938272,0,0)" xlink:href="#U"/><use transform="matrix(0.04938271604938272,0,0,0.04938271604938272,9.876543209876544,0)" xlink:href="#V"/><use transform="matrix(0.04938271604938272,0,0,0.04938271604938272,14.814814814814817,0)" xlink:href="#W"/><use transform="matrix(0.04938271604938272,0,0,0.04938271604938272,24.69135802469136,0)" xlink:href="#V"/><use transform="matrix(0.04938271604938272,0,0,0.04938271604938272,29.629629629629633,0)" xlink:href="#X"/></g><path fill="#333" d="M182-182c0 78-84 86-111 141h115V0H12c-6-101 99-100 120-180 1-22-12-31-33-32-23 0-32 14-35 34l-49-3c5-45 32-70 84-70 51 0 83 22 83 69" id="Y"/><use transform="matrix(0.04938271604938272,0,0,0.04938271604938272,0,0)" xlink:href="#Y" id="d"/><path fill="#333" d="M126-127c33 6 58 20 58 59 0 88-139 92-164 29-3-8-5-16-6-25l32-3c6 27 21 44 54 44 32 0 52-15 52-46 0-38-36-46-79-43v-28c39 1 72-4 72-42 0-27-17-43-46-43-28 0-47 15-49 41l-32-3c6-42 35-63 81-64 48-1 79 21 79 65 0 36-21 52-52 59" id="Z"/><use transform="matrix(0.0987654320987654,0,0,0.0987654320987654,0,0)" xlink:href="#Z" id="e"/><path fill="#333" d="M155-56V0h-30v-56H8v-25l114-167h33v167h35v25h-35zm-30-156c-27 46-58 90-88 131h88v-131" id="aa"/><use transform="matrix(0.0987654320987654,0,0,0.0987654320987654,0,0)" xlink:href="#aa" id="f"/><g id="g"><use transform="matrix(0.04938271604938272,0,0,0.04938271604938272,0,0)" xlink:href="#U"/><use transform="matrix(0.04938271604938272,0,0,0.04938271604938272,9.876543209876544,0)" xlink:href="#V"/><use transform="matrix(0.04938271604938272,0,0,0.04938271604938272,14.814814814814817,0)" xlink:href="#X"/></g><use transform="matrix(0.04938271604938272,0,0,0.04938271604938272,0,0)" xlink:href="#W" id="h"/><path fill="#333" d="M54-142c48-35 137-8 131 61C196 18 31 33 14-55l32-4c7 23 22 37 52 37 35-1 51-22 54-58 4-55-73-65-99-34H22l8-134h141v27H59" id="ab"/><use transform="matrix(0.0987654320987654,0,0,0.0987654320987654,0,0)" xlink:href="#ab" id="i"/><path fill="#333" d="M110-160c48 1 74 30 74 79 0 53-28 85-80 85-65 0-83-55-86-122-5-90 50-162 133-122 14 7 22 21 27 39l-31 6c-5-40-67-38-82-6-9 19-15 44-15 74 11-20 30-34 60-33zm-7 138c34 0 49-23 49-58s-16-56-50-56c-29 0-50 16-49 49 1 36 15 65 50 65" id="ac"/><use transform="matrix(0.0987654320987654,0,0,0.0987654320987654,0,0)" xlink:href="#ac" id="j"/><path fill="#333" d="M128-127c34 4 56 21 59 58 7 91-148 94-172 28-4-9-6-17-7-26l51-5c1 24 16 35 40 36 23 0 39-12 38-36-1-31-31-36-65-34v-40c32 2 59-3 59-33 0-20-13-33-34-33s-33 13-35 32l-50-3c6-44 37-68 86-68 50 0 83 20 83 66 0 35-22 52-53 58" id="ad"/><path fill="#333" d="M165-50V0h-47v-50H5v-38l105-160h55v161h33v37h-33zm-47-37l2-116L46-87h72" id="ae"/><g id="k"><use transform="matrix(0.04938271604938272,0,0,0.04938271604938272,0,0)" xlink:href="#ad"/><use transform="matrix(0.04938271604938272,0,0,0.04938271604938272,9.876543209876544,0)" xlink:href="#V"/><use transform="matrix(0.04938271604938272,0,0,0.04938271604938272,14.814814814814817,0)" xlink:href="#ae"/></g><path fill="#333" d="M101-251c68 0 84 54 84 127C185-50 166 4 99 4S15-52 14-124c-1-75 17-127 87-127zm-1 216c37-5 36-46 36-89s4-89-36-89c-39 0-36 45-36 89 0 43-3 85 36 89" id="af"/><use transform="matrix(0.04938271604938272,0,0,0.04938271604938272,0,0)" xlink:href="#af" id="l"/><g id="m"><use transform="matrix(0.04938271604938272,0,0,0.04938271604938272,0,0)" xlink:href="#ad"/><use transform="matrix(0.04938271604938272,0,0,0.04938271604938272,9.876543209876544,0)" xlink:href="#V"/><use transform="matrix(0.04938271604938272,0,0,0.04938271604938272,14.814814814814817,0)" xlink:href="#U"/><use transform="matrix(0.04938271604938272,0,0,0.04938271604938272,24.69135802469136,0)" xlink:href="#af"/></g><use transform="matrix(0.04938271604938272,0,0,0.04938271604938272,0,0)" xlink:href="#U" id="n"/><g id="o"><use transform="matrix(0.04938271604938272,0,0,0.04938271604938272,0,0)" xlink:href="#W"/><use transform="matrix(0.04938271604938272,0,0,0.04938271604938272,9.876543209876544,0)" xlink:href="#V"/><use transform="matrix(0.04938271604938272,0,0,0.04938271604938272,14.814814814814817,0)" xlink:href="#X"/></g><g id="p"><use transform="matrix(0.04938271604938272,0,0,0.04938271604938272,0,0)" xlink:href="#U"/><use transform="matrix(0.04938271604938272,0,0,0.04938271604938272,8.88888888888889,0)" xlink:href="#U"/></g><path fill="#333" d="M139-81c0-46-55-55-73-27H18l9-140h149v37H72l-4 63c44-38 133-4 122 66C201 21 21 35 11-62l49-4c5 18 15 30 39 30 26 0 40-18 40-45" id="ag"/><path fill="#333" d="M115-159c48 0 72 30 72 78 0 54-30 85-83 85-64 0-91-50-91-122 0-98 58-163 141-120 15 8 21 24 27 44l-47 6c-5-31-48-31-61-4-7 14-11 33-11 60 9-17 28-27 53-27zM102-35c24 0 36-20 36-45s-11-43-37-43c-23 0-36 14-36 38 0 27 11 50 37 50" id="ah"/><g id="q"><use transform="matrix(0.04938271604938272,0,0,0.04938271604938272,0,0)" xlink:href="#ag"/><use transform="matrix(0.04938271604938272,0,0,0.04938271604938272,9.876543209876544,0)" xlink:href="#V"/><use transform="matrix(0.04938271604938272,0,0,0.04938271604938272,14.814814814814817,0)" xlink:href="#ah"/></g><path d="M117-675c0-408 109-695 502-695 384 0 492 295 492 695 0 326-84 561-303 658-117 51-277 52-394 1-217-95-297-335-297-659zm591 451c148-93 132-449 108-680-15-138-53-246-199-246-150 0-193 107-207 248-22 230-40 585 106 678 50 32 141 32 192 0zM506-555v-249h215v249H506" id="ai"/><path d="M470 0v-305h289V0H470" id="aj"/><path d="M1092-1126C914-878 744-630 663-296c-23 96-34 194-34 296H336c7-366 145-620 298-854 59-90 126-177 197-264H131v-231h961v223" id="ak"/><path d="M844-1321c-130 0-195 53-191 182v57h443v190H653V0H373v-892H117v-190h256v-83c5-247 162-348 422-349 120-1 232 13 327 28v184c-84-10-183-19-278-19" id="al"/><g id="r"><use transform="matrix(0.009331597222222222,0,0,0.009331597222222222,0,0)" xlink:href="#ai"/><use transform="matrix(0.009331597222222222,0,0,0.009331597222222222,11.46853298611111,0)" xlink:href="#ai"/><use transform="matrix(0.009331597222222222,0,0,0.009331597222222222,22.93706597222222,0)" xlink:href="#aj"/><use transform="matrix(0.009331597222222222,0,0,0.009331597222222222,34.40559895833333,0)" xlink:href="#aj"/><use transform="matrix(0.009331597222222222,0,0,0.009331597222222222,45.87413194444444,0)" xlink:href="#ak"/><use transform="matrix(0.009331597222222222,0,0,0.009331597222222222,57.34266493055556,0)" xlink:href="#al"/></g><path d="M1065-1013c47 164 49 500-1 665C999-130 875 20 611 20c-377 0-484-300-487-695-2-245 41-425 141-551 77-98 191-144 352-144 261 0 386 140 448 357zM741-155c199-92 203-504 159-785-26-168-96-284-283-284-281 0-308 256-311 549-2 181 18 324 80 428 46 77 115 118 227 120 47 0 90-10 128-28zM496-555v-249h235v249H496" id="am"/><use transform="matrix(0.009331597222222222,0,0,0.009331597222222222,0,0)" xlink:href="#am" id="s"/><path d="M1113-274C1038-96 884 20 626 20c-352 0-526-209-526-566 0-358 185-556 530-556 358 0 496 251 499 615H395c5 180 68 319 245 319 102 0 186-45 208-129zM857-663c-6-177-128-307-315-247-94 30-141 121-145 247h460" id="an"/><path d="M138-1120c207-4 339-93 415-229h266v1140h323V0H149v-209h389v-891c-70 121-216 187-400 194v-214" id="ao"/><path d="M1109-360C1066-122 902 20 624 20c-347 0-514-209-514-555 0-353 168-567 518-567 270 0 425 136 473 361l-283 14c-16-106-75-183-196-182-75 0-130 31-165 93s-52 152-52 270c0 249 74 374 221 374 120 0 188-82 201-201" id="ap"/><g id="t"><use transform="matrix(0.009331597222222222,0,0,0.009331597222222222,0,0)" xlink:href="#an"/><use transform="matrix(0.009331597222222222,0,0,0.009331597222222222,11.46853298611111,0)" xlink:href="#ao"/><use transform="matrix(0.009331597222222222,0,0,0.009331597222222222,22.93706597222222,0)" xlink:href="#aj"/><use transform="matrix(0.009331597222222222,0,0,0.009331597222222222,34.40559895833333,0)" xlink:href="#aj"/><use transform="matrix(0.009331597222222222,0,0,0.009331597222222222,45.87413194444444,0)" xlink:href="#an"/><use transform="matrix(0.009331597222222222,0,0,0.009331597222222222,57.34266493055556,0)" xlink:href="#ap"/></g><path d="M1060-1016c0 191-128 285-295 323v4c154 18 262 91 313 209 14 35 21 72 21 110 0 277-194 390-478 390-292 0-457-129-493-382l186-17c24 161 121 250 307 250 172 1 298-80 291-247-8-208-220-239-446-233v-156c217 9 409-34 409-232 0-152-102-225-264-225-159 0-264 88-278 233l-181-14c33-239 196-367 461-367 264 0 447 102 447 354" id="aq"/><use transform="matrix(0.009331597222222222,0,0,0.009331597222222222,0,0)" xlink:href="#aq" id="u"/><path d="M829-709c170 32 291 130 291 327 0 285-207 402-505 402-296 0-506-116-506-400 0-194 122-293 287-327v-4c-145-37-254-130-254-301 0-257 201-358 469-358 275 0 474 97 474 360 0 168-110 262-256 297v4zm-216-99c126 0 184-66 183-187-1-119-62-179-185-178-121 0-182 60-182 178 0 119 60 187 184 187zm4 630c149 0 213-80 212-227-2-138-77-206-220-206-139 1-209 76-211 210-2 147 70 223 219 223" id="ar"/><g id="v"><use transform="matrix(0.009331597222222222,0,0,0.009331597222222222,0,0)" xlink:href="#ar"/><use transform="matrix(0.009331597222222222,0,0,0.009331597222222222,11.46853298611111,0)" xlink:href="#ai"/><use transform="matrix(0.009331597222222222,0,0,0.009331597222222222,22.93706597222222,0)" xlink:href="#aj"/><use transform="matrix(0.009331597222222222,0,0,0.009331597222222222,34.40559895833333,0)" xlink:href="#aj"/><use transform="matrix(0.009331597222222222,0,0,0.009331597222222222,45.87413194444444,0)" xlink:href="#ar"/><use transform="matrix(0.009331597222222222,0,0,0.009331597222222222,57.34266493055556,0)" xlink:href="#al"/></g><path d="M148-1120c216-7 379-89 463-229h166v1204h353V0H157v-145h439v-1021c-79 124-254 184-448 194v-148" id="as"/><use transform="matrix(0.009331597222222222,0,0,0.009331597222222222,0,0)" xlink:href="#as" id="w"/><path d="M802-909c-3-189-2-383-2-575h281v1248c-1 83 4 168 8 236H817c-9-50-14-117-15-176h-4C735-49 651 20 482 20 191 20 97-238 97-539c0-243 66-432 221-519 50-28 108-42 175-42 162 2 253 78 309 191zm-70 658c91-113 93-462 2-584-46-61-145-100-224-53-96 56-119 190-120 349 0 123 17 214 52 275 46 82 130 115 222 74 25-12 46-33 68-61" id="at"/><g id="x"><use transform="matrix(0.009331597222222222,0,0,0.009331597222222222,0,0)" xlink:href="#an"/><use transform="matrix(0.009331597222222222,0,0,0.009331597222222222,11.46853298611111,0)" xlink:href="#at"/><use transform="matrix(0.009331597222222222,0,0,0.009331597222222222,22.93706597222222,0)" xlink:href="#aj"/><use transform="matrix(0.009331597222222222,0,0,0.009331597222222222,34.40559895833333,0)" xlink:href="#aj"/><use transform="matrix(0.009331597222222222,0,0,0.009331597222222222,45.87413194444444,0)" xlink:href="#an"/><use transform="matrix(0.009331597222222222,0,0,0.009331597222222222,57.34266493055556,0)" xlink:href="#at"/></g><path d="M937-319V0H757v-319H103v-140l635-890h199v888h188v142H937zm-180-835L257-461h500v-693" id="au"/><use transform="matrix(0.009331597222222222,0,0,0.009331597222222222,0,0)" xlink:href="#au" id="y"/><path d="M114-913c0-304 185-457 492-457 163 0 287 55 372 166s128 280 128 507c-1 325-87 566-302 671-146 73-404 55-514-32-75-59-123-143-151-253l264-37c24 90 76 147 180 147 76 0 135-35 179-105s67-174 68-313c-55 100-162 160-311 160-269 0-405-180-405-454zm486 245c129 0 209-78 209-211 0-151-63-271-210-271-137 0-200 99-200 239 0 139 63 243 201 243" id="av"/><g id="z"><use transform="matrix(0.009331597222222222,0,0,0.009331597222222222,0,0)" xlink:href="#av"/><use transform="matrix(0.009331597222222222,0,0,0.009331597222222222,11.46853298611111,0)" xlink:href="#ai"/><use transform="matrix(0.009331597222222222,0,0,0.009331597222222222,22.93706597222222,0)" xlink:href="#aj"/><use transform="matrix(0.009331597222222222,0,0,0.009331597222222222,34.40559895833333,0)" xlink:href="#aj"/><use transform="matrix(0.009331597222222222,0,0,0.009331597222222222,45.87413194444444,0)" xlink:href="#av"/><use transform="matrix(0.009331597222222222,0,0,0.009331597222222222,57.34266493055556,0)" xlink:href="#al"/></g><path d="M141-911c0-296 172-459 469-459 157 0 276 55 356 166s121 278 121 501c-1 324-87 567-297 677-134 70-367 56-475-22-71-52-117-126-145-226l172-27c34 111 103 176 238 176 187 0 261-138 304-298 16-65 24-141 25-227-59 121-177 199-350 199-275 0-418-184-418-460zm461 318c168 0 289-96 289-269 0-158-59-275-163-332-36-20-77-30-124-30-187 0-280 125-280 313s90 318 278 318" id="aw"/><use transform="matrix(0.009331597222222222,0,0,0.009331597222222222,0,0)" xlink:href="#aw" id="A"/><g id="B"><use transform="matrix(0.009331597222222222,0,0,0.009331597222222222,0,0)" xlink:href="#an"/><use transform="matrix(0.009331597222222222,0,0,0.009331597222222222,11.46853298611111,0)" xlink:href="#an"/><use transform="matrix(0.009331597222222222,0,0,0.009331597222222222,22.93706597222222,0)" xlink:href="#aj"/><use transform="matrix(0.009331597222222222,0,0,0.009331597222222222,34.40559895833333,0)" xlink:href="#aj"/><use transform="matrix(0.009331597222222222,0,0,0.009331597222222222,45.87413194444444,0)" xlink:href="#an"/><use transform="matrix(0.009331597222222222,0,0,0.009331597222222222,57.34266493055556,0)" xlink:href="#al"/></g><path d="M775-193C708-75 621 20 439 20 226 20 106-93 106-306c0-251 170-341 417-346l223-4c4-143-12-264-148-264-103 0-141 58-150 153l-293-14c37-219 194-321 455-321 263 0 418 130 417 390v392c1 84 5 161 89 160 21 0 42-2 62-6v152c-57 15-108 27-180 26-145 0-202-73-217-205h-6zm-256 17c168 0 234-139 227-325-166 4-347-25-347 173 0 94 33 152 120 152" id="ax"/><path d="M429-1484c1 190-1 388 0 572 54-116 155-191 317-191 300 0 386 257 386 563 0 241-73 429-226 518-49 28-106 42-169 42-162 0-251-81-306-196h-4c-1 59-5 127-15 176H140c4-67 9-153 8-236v-1248h281zm66 648c-93 114-92 466 1 585 35 45 77 79 142 79 64 0 112-31 148-92 69-115 68-440-2-561-39-68-131-111-221-70-25 11-46 32-68 59" id="ay"/><g id="C"><use transform="matrix(0.009331597222222222,0,0,0.009331597222222222,0,0)" xlink:href="#ax"/><use transform="matrix(0.009331597222222222,0,0,0.009331597222222222,11.46853298611111,0)" xlink:href="#ai"/><use transform="matrix(0.009331597222222222,0,0,0.009331597222222222,22.93706597222222,0)" xlink:href="#aj"/><use transform="matrix(0.009331597222222222,0,0,0.009331597222222222,34.40559895833333,0)" xlink:href="#aj"/><use transform="matrix(0.009331597222222222,0,0,0.009331597222222222,45.87413194444444,0)" xlink:href="#ay"/><use transform="matrix(0.009331597222222222,0,0,0.009331597222222222,57.34266493055556,0)" xlink:href="#al"/></g><path d="M1069-1210C890-948 720-664 634-316c-25 105-38 210-38 316H408c9-385 153-667 302-925 57-98 120-190 185-279H158v-145h911v139" id="az"/><use transform="matrix(0.009331597222222222,0,0,0.009331597222222222,0,0)" xlink:href="#az" id="D"/><g id="E"><use transform="matrix(0.009331597222222222,0,0,0.009331597222222222,0,0)" xlink:href="#al"/><use transform="matrix(0.009331597222222222,0,0,0.009331597222222222,11.46853298611111,0)" xlink:href="#ai"/><use transform="matrix(0.009331597222222222,0,0,0.009331597222222222,22.93706597222222,0)" xlink:href="#aj"/><use transform="matrix(0.009331597222222222,0,0,0.009331597222222222,34.40559895833333,0)" xlink:href="#aj"/><use transform="matrix(0.009331597222222222,0,0,0.009331597222222222,45.87413194444444,0)" xlink:href="#al"/><use transform="matrix(0.009331597222222222,0,0,0.009331597222222222,57.34266493055556,0)" xlink:href="#ai"/></g><g id="F"><use transform="matrix(0.009331597222222222,0,0,0.009331597222222222,0,0)" xlink:href="#as"/><use transform="matrix(0.009331597222222222,0,0,0.009331597222222222,11.46853298611111,0)" xlink:href="#as"/></g><g id="G"><use transform="matrix(0.009331597222222222,0,0,0.009331597222222222,0,0)" xlink:href="#ap"/><use transform="matrix(0.009331597222222222,0,0,0.009331597222222222,11.46853298611111,0)" xlink:href="#ai"/><use transform="matrix(0.009331597222222222,0,0,0.009331597222222222,22.93706597222222,0)" xlink:href="#aj"/><use transform="matrix(0.009331597222222222,0,0,0.009331597222222222,34.40559895833333,0)" xlink:href="#aj"/><use transform="matrix(0.009331597222222222,0,0,0.009331597222222222,45.87413194444444,0)" xlink:href="#ap"/><use transform="matrix(0.009331597222222222,0,0,0.009331597222222222,57.34266493055556,0)" xlink:href="#ao"/></g><path d="M809-709c168 33 285 134 285 331 0 277-191 398-480 398-287 0-481-120-481-396 0-192 118-296 281-331v-4c-145-39-248-139-248-313 0-238 192-346 444-346 211 0 357 75 422 217 19 41 27 86 27 131 0 172-101 274-250 309v4zm-197-70c168 0 260-73 260-233 0-158-100-224-262-224-160 0-260 68-260 224 0 155 97 232 262 233zm4 664c194 1 291-91 291-280 0-172-115-249-297-249-178 0-291 85-291 253 0 186 106 275 297 276" id="aA"/><use transform="matrix(0.009331597222222222,0,0,0.009331597222222222,0,0)" xlink:href="#aA" id="H"/><path d="M788-691c191 26 337 112 337 315 0 286-214 399-510 399-306 0-483-128-522-391l286-25c18 124 91 190 235 188 132-2 223-58 223-188 0-176-191-182-378-179v-227c176 5 345-9 345-176 0-115-82-171-200-171s-198 55-206 169l-281-20c34-252 213-373 492-373 224 0 381 74 451 224 20 43 29 89 29 136 0 195-130 279-301 315v4" id="aB"/><g id="I"><use transform="matrix(0.009331597222222222,0,0,0.009331597222222222,0,0)" xlink:href="#al"/><use transform="matrix(0.009331597222222222,0,0,0.009331597222222222,11.46853298611111,0)" xlink:href="#ao"/><use transform="matrix(0.009331597222222222,0,0,0.009331597222222222,22.93706597222222,0)" xlink:href="#aj"/><use transform="matrix(0.009331597222222222,0,0,0.009331597222222222,34.40559895833333,0)" xlink:href="#aj"/><use transform="matrix(0.009331597222222222,0,0,0.009331597222222222,45.87413194444444,0)" xlink:href="#al"/><use transform="matrix(0.009331597222222222,0,0,0.009331597222222222,57.34266493055556,0)" xlink:href="#aB"/></g><path d="M672-881c271 0 424 163 424 435 0 291-160 466-455 466-367 0-490-287-490-662 0-324 85-568 293-680 129-70 351-59 460 16 73 50 125 123 153 223l-172 31c-31-108-107-172-232-172-259 0-316 252-323 529 59-113 178-186 342-186zm-37 756c186 0 278-124 278-313s-96-304-284-304c-163 0-281 93-281 261 0 157 65 270 168 327 35 19 75 29 119 29" id="aC"/><use transform="matrix(0.009331597222222222,0,0,0.009331597222222222,0,0)" xlink:href="#aC" id="J"/><path d="M135-968c34-256 187-402 480-402 217 0 371 75 441 220 45 93 40 219-8 308-114 212-348 323-508 488-38 39-66 80-85 123h654V0H123v-195c112-245 321-399 515-560 57-48 107-96 142-157 14-26 22-53 22-80-1-104-73-156-185-154-131 2-181 74-199 194" id="aD"/><g id="K"><use transform="matrix(0.009331597222222222,0,0,0.009331597222222222,0,0)" xlink:href="#ap"/><use transform="matrix(0.009331597222222222,0,0,0.009331597222222222,11.46853298611111,0)" xlink:href="#aD"/><use transform="matrix(0.009331597222222222,0,0,0.009331597222222222,22.93706597222222,0)" xlink:href="#aj"/><use transform="matrix(0.009331597222222222,0,0,0.009331597222222222,34.40559895833333,0)" xlink:href="#aj"/><use transform="matrix(0.009331597222222222,0,0,0.009331597222222222,45.87413194444444,0)" xlink:href="#at"/><use transform="matrix(0.009331597222222222,0,0,0.009331597222222222,57.34266493055556,0)" xlink:href="#al"/></g><path d="M611-1370c266 0 451 106 451 368 0 147-77 243-154 327-132 144-316 255-451 395-42 44-75 87-96 134h723V0H144v-117c124-264 387-411 582-603 73-72 151-147 151-271 0-161-104-231-266-231-163 0-249 90-268 238l-184-17c35-233 185-369 452-369" id="aE"/><use transform="matrix(0.009331597222222222,0,0,0.009331597222222222,0,0)" xlink:href="#aE" id="L"/><path d="M980-287V0H712v-287H71v-211l595-851h314v853h188v209H980zM712-496c2-204-7-417 9-609-118 224-277 405-414 609h405" id="aF"/><g id="M"><use transform="matrix(0.009331597222222222,0,0,0.009331597222222222,0,0)" xlink:href="#al"/><use transform="matrix(0.009331597222222222,0,0,0.009331597222222222,11.46853298611111,0)" xlink:href="#aF"/><use transform="matrix(0.009331597222222222,0,0,0.009331597222222222,22.93706597222222,0)" xlink:href="#aj"/><use transform="matrix(0.009331597222222222,0,0,0.009331597222222222,34.40559895833333,0)" xlink:href="#aj"/><use transform="matrix(0.009331597222222222,0,0,0.009331597222222222,45.87413194444444,0)" xlink:href="#al"/><use transform="matrix(0.009331597222222222,0,0,0.009331597222222222,57.34266493055556,0)" xlink:href="#aF"/></g><path d="M353-779c69-51 166-92 291-90 218 3 357 100 423 255 21 52 32 109 32 170 0 305-189 464-500 464-268 0-424-116-471-335l182-21c35 130 124 212 293 209 198-4 309-114 309-313 0-182-118-282-305-282-120 0-198 45-262 101H169l47-728h801v145H382" id="aG"/><use transform="matrix(0.009331597222222222,0,0,0.009331597222222222,0,0)" xlink:href="#aG" id="N"/><g id="O"><use transform="matrix(0.009331597222222222,0,0,0.009331597222222222,0,0)" xlink:href="#an"/><use transform="matrix(0.009331597222222222,0,0,0.009331597222222222,11.46853298611111,0)" xlink:href="#ai"/><use transform="matrix(0.009331597222222222,0,0,0.009331597222222222,22.93706597222222,0)" xlink:href="#aj"/><use transform="matrix(0.009331597222222222,0,0,0.009331597222222222,34.40559895833333,0)" xlink:href="#aj"/><use transform="matrix(0.009331597222222222,0,0,0.009331597222222222,45.87413194444444,0)" xlink:href="#an"/><use transform="matrix(0.009331597222222222,0,0,0.009331597222222222,57.34266493055556,0)" xlink:href="#ai"/></g><g id="P"><use transform="matrix(0.009331597222222222,0,0,0.009331597222222222,0,0)" xlink:href="#as"/><use transform="matrix(0.009331597222222222,0,0,0.009331597222222222,11.46853298611111,0)" xlink:href="#am"/></g><path d="M426-814c58-49 145-93 255-90 282 8 442 169 442 450 0 312-203 474-522 474-288 0-453-130-497-372l281-23c24 104 89 172 219 172 153 0 230-91 230-245 0-144-78-226-224-229-94-2-148 42-191 91H145l49-763h847v209H449" id="aH"/><g id="Q"><use transform="matrix(0.009331597222222222,0,0,0.009331597222222222,0,0)" xlink:href="#al"/><use transform="matrix(0.009331597222222222,0,0,0.009331597222222222,11.46853298611111,0)" xlink:href="#aH"/><use transform="matrix(0.009331597222222222,0,0,0.009331597222222222,22.93706597222222,0)" xlink:href="#aj"/><use transform="matrix(0.009331597222222222,0,0,0.009331597222222222,34.40559895833333,0)" xlink:href="#aj"/><use transform="matrix(0.009331597222222222,0,0,0.009331597222222222,45.87413194444444,0)" xlink:href="#al"/><use transform="matrix(0.009331597222222222,0,0,0.009331597222222222,57.34266493055556,0)" xlink:href="#al"/></g><use transform="matrix(0.009331597222222222,0,0,0.009331597222222222,0,0)" xlink:href="#aA" id="R"/></defs></g></svg>